<svg xmlns="http://www.w3.org/2000/svg" viewBox="0 0 520 360" role="img" aria-label="CryptoEngine V-Twin logo">
  <defs>
    <linearGradient id="vtChrome" x1="0" y1="0" x2="0" y2="1">
      <stop offset="0" stop-color="#f8fafc"/>
      <stop offset="0.35" stop-color="#94a3b8"/>
      <stop offset="0.62" stop-color="#475569"/>
      <stop offset="1" stop-color="#1e293b"/>
    </linearGradient>
    <linearGradient id="vtFinBlack" x1="0" y1="0" x2="0" y2="1">
      <stop offset="0" stop-color="#1a2438"/>
      <stop offset="1" stop-color="#04070d"/>
    </linearGradient>
    <linearGradient id="vtBarrel" x1="0" y1="0" x2="0" y2="1">
      <stop offset="0" stop-color="#111a2c"/>
      <stop offset="1" stop-color="#04070d"/>
    </linearGradient>
    <linearGradient id="vtCase" x1="0" y1="0" x2="0" y2="1">
      <stop offset="0" stop-color="#1b2740"/>
      <stop offset="1" stop-color="#070b16"/>
    </linearGradient>
    <linearGradient id="vtFlame" x1="0" y1="0" x2="0" y2="1">
      <stop offset="0" stop-color="#a7f3d0"/>
      <stop offset="0.5" stop-color="#34d399"/>
      <stop offset="1" stop-color="#059669"/>
    </linearGradient>
    <linearGradient id="vtText" x1="0" y1="0" x2="1" y2="0">
      <stop offset="0" stop-color="#34d399"/>
      <stop offset="1" stop-color="#a7f3d0"/>
    </linearGradient>
    <linearGradient id="vtSilver" x1="0" y1="0" x2="1" y2="0">
      <stop offset="0" stop-color="#64748b"/>
      <stop offset="0.5" stop-color="#e2e8f0"/>
      <stop offset="1" stop-color="#64748b"/>
    </linearGradient>
    <radialGradient id="vtCore" cx="0.5" cy="0.5" r="0.5">
      <stop offset="0" stop-color="#d1fae5" stop-opacity="0.95"/>
      <stop offset="0.35" stop-color="#10b981" stop-opacity="0.9"/>
      <stop offset="0.7" stop-color="#10b981" stop-opacity="0.35"/>
      <stop offset="1" stop-color="#10b981" stop-opacity="0"/>
    </radialGradient>
    <radialGradient id="vtAir" cx="0.35" cy="0.35" r="0.75">
      <stop offset="0" stop-color="#f8fafc"/>
      <stop offset="0.45" stop-color="#94a3b8"/>
      <stop offset="1" stop-color="#1e293b"/>
    </radialGradient>
    <filter id="vtGlow" x="-40%" y="-40%" width="180%" height="180%">
      <feGaussianBlur stdDeviation="5"/>
    </filter>
    <filter id="vtGlowTight" x="-40%" y="-40%" width="180%" height="180%">
      <feGaussianBlur stdDeviation="2"/>
    </filter>
  </defs>

  <g transform="translate(260 222)">
    <g>
      <animateTransform attributeName="transform" type="scale" values="1;1.03;1.008;1.02;1.03;1.008;1" keyTimes="0;0.33;0.42;0.62;0.78;0.88;1" dur="1.15s" repeatCount="indefinite"/>

      <g>
        <animateTransform attributeName="transform" type="rotate" values="0;360" dur="9s" repeatCount="indefinite"/>
        <ellipse cx="0" cy="0" rx="150" ry="100" fill="none" stroke="#10b981" stroke-opacity="0.16" stroke-width="1.2" stroke-dasharray="2 9"/>
      </g>

      <g>
        <circle cx="150" cy="0" r="2.6" fill="#34d399">
          <animateTransform attributeName="transform" type="translate" values="0 0; 0 0; -150 0; -150 0; 0 0" keyTimes="0; 0.06; 0.28; 0.45; 0.6" dur="1.15s" begin="0s" repeatCount="indefinite"/>
          <animate attributeName="opacity" values="0.9; 0.9; 0.3; 0.3; 0.9" keyTimes="0; 0.06; 0.28; 0.45; 0.6" dur="1.15s" begin="0s" repeatCount="indefinite"/>
        </circle>
        <circle cx="106" cy="71" r="2.6" fill="#34d399">
          <animateTransform attributeName="transform" type="translate" values="0 0; 0 0; -106 -71; -106 -71; 0 0" keyTimes="0; 0.06; 0.28; 0.45; 0.6" dur="1.15s" begin="0.09s" repeatCount="indefinite"/>
          <animate attributeName="opacity" values="0.9; 0.9; 0.3; 0.3; 0.9" keyTimes="0; 0.06; 0.28; 0.45; 0.6" dur="1.15s" begin="0.09s" repeatCount="indefinite"/>
        </circle>
        <circle cx="0" cy="100" r="2.6" fill="#34d399">
          <animateTransform attributeName="transform" type="translate" values="0 0; 0 0; 0 -100; 0 -100; 0 0" keyTimes="0; 0.06; 0.28; 0.45; 0.6" dur="1.15s" begin="0.18s" repeatCount="indefinite"/>
          <animate attributeName="opacity" values="0.9; 0.9; 0.3; 0.3; 0.9" keyTimes="0; 0.06; 0.28; 0.45; 0.6" dur="1.15s" begin="0.18s" repeatCount="indefinite"/>
        </circle>
        <circle cx="-106" cy="71" r="2.6" fill="#34d399">
          <animateTransform attributeName="transform" type="translate" values="0 0; 0 0; 106 -71; 106 -71; 0 0" keyTimes="0; 0.06; 0.28; 0.45; 0.6" dur="1.15s" begin="0.27s" repeatCount="indefinite"/>
          <animate attributeName="opacity" values="0.9; 0.9; 0.3; 0.3; 0.9" keyTimes="0; 0.06; 0.28; 0.45; 0.6" dur="1.15s" begin="0.27s" repeatCount="indefinite"/>
        </circle>
        <circle cx="-150" cy="0" r="2.6" fill="#34d399">
          <animateTransform attributeName="transform" type="translate" values="0 0; 0 0; 150 0; 150 0; 0 0" keyTimes="0; 0.06; 0.28; 0.45; 0.6" dur="1.15s" begin="0.575s" repeatCount="indefinite"/>
          <animate attributeName="opacity" values="0.9; 0.9; 0.3; 0.3; 0.9" keyTimes="0; 0.06; 0.28; 0.45; 0.6" dur="1.15s" begin="0.575s" repeatCount="indefinite"/>
        </circle>
        <circle cx="-106" cy="-71" r="2.6" fill="#34d399">
          <animateTransform attributeName="transform" type="translate" values="0 0; 0 0; 106 71; 106 71; 0 0" keyTimes="0; 0.06; 0.28; 0.45; 0.6" dur="1.15s" begin="0.665s" repeatCount="indefinite"/>
          <animate attributeName="opacity" values="0.9; 0.9; 0.3; 0.3; 0.9" keyTimes="0; 0.06; 0.28; 0.45; 0.6" dur="1.15s" begin="0.665s" repeatCount="indefinite"/>
        </circle>
        <circle cx="0" cy="-100" r="2.6" fill="#34d399">
          <animateTransform attributeName="transform" type="translate" values="0 0; 0 0; 0 100; 0 100; 0 0" keyTimes="0; 0.06; 0.28; 0.45; 0.6" dur="1.15s" begin="0.755s" repeatCount="indefinite"/>
          <animate attributeName="opacity" values="0.9; 0.9; 0.3; 0.3; 0.9" keyTimes="0; 0.06; 0.28; 0.45; 0.6" dur="1.15s" begin="0.755s" repeatCount="indefinite"/>
        </circle>
        <circle cx="106" cy="-71" r="2.6" fill="#34d399">
          <animateTransform attributeName="transform" type="translate" values="0 0; 0 0; -106 71; -106 71; 0 0" keyTimes="0; 0.06; 0.28; 0.45; 0.6" dur="1.15s" begin="0.845s" repeatCount="indefinite"/>
          <animate attributeName="opacity" values="0.9; 0.9; 0.3; 0.3; 0.9" keyTimes="0; 0.06; 0.28; 0.45; 0.6" dur="1.15s" begin="0.845s" repeatCount="indefinite"/>
        </circle>
      </g>

      <rect x="-60" y="-36" width="120" height="72" rx="26" fill="url(#vtCase)" stroke="#1b2740" stroke-width="2"/>
      <path d="M -50 6 Q 0 26 50 6" fill="none" stroke="#2b3a55" stroke-width="1.5" opacity="0.7"/>
      <circle cx="0" cy="0" r="30" fill="none" stroke="url(#vtChrome)" stroke-width="6"/>

      <path d="M -56 -120 C -132 -120 -152 -52 -128 10 C -112 48 -98 76 -82 84" fill="none" stroke="url(#vtChrome)" stroke-width="11" stroke-linecap="round"/>
      <ellipse cx="-88" cy="86" rx="5" ry="9" fill="url(#vtFlame)" filter="url(#vtGlow)">
        <animate attributeName="opacity" values="0.95; 0.4; 0.8; 0.95" keyTimes="0; 0.35; 0.7; 1" dur="0.5s" repeatCount="indefinite"/>
      </ellipse>

      <g transform="rotate(-22.5)">
        <rect x="-36" y="-120" width="72" height="120" rx="10" fill="url(#vtBarrel)"/>
        <rect x="-38" y="-108" width="76" height="8" fill="url(#vtFinBlack)"/>
        <rect x="-38" y="-108" width="76" height="3" fill="url(#vtChrome)"/>
        <rect x="-38" y="-100" width="76" height="3" fill="#02060c" opacity="0.9"/>
        <rect x="-38" y="-95" width="76" height="8" fill="url(#vtFinBlack)"/>
        <rect x="-38" y="-95" width="76" height="3" fill="url(#vtChrome)"/>
        <rect x="-38" y="-87" width="76" height="3" fill="#02060c" opacity="0.9"/>
        <rect x="-38" y="-82" width="76" height="8" fill="url(#vtFinBlack)"/>
        <rect x="-38" y="-82" width="76" height="3" fill="url(#vtChrome)"/>
        <rect x="-38" y="-74" width="76" height="3" fill="#02060c" opacity="0.9"/>
        <rect x="-38" y="-69" width="76" height="8" fill="url(#vtFinBlack)"/>
        <rect x="-38" y="-69" width="76" height="3" fill="url(#vtChrome)"/>
        <rect x="-38" y="-61" width="76" height="3" fill="#02060c" opacity="0.9"/>
        <rect x="-38" y="-56" width="76" height="8" fill="url(#vtFinBlack)"/>
        <rect x="-38" y="-56" width="76" height="3" fill="url(#vtChrome)"/>
        <rect x="-38" y="-48" width="76" height="3" fill="#02060c" opacity="0.9"/>
        <rect x="-38" y="-43" width="76" height="8" fill="url(#vtFinBlack)"/>
        <rect x="-38" y="-43" width="76" height="3" fill="url(#vtChrome)"/>
        <rect x="-38" y="-35" width="76" height="3" fill="#02060c" opacity="0.9"/>
        <rect x="-38" y="-30" width="76" height="8" fill="url(#vtFinBlack)"/>
        <rect x="-38" y="-30" width="76" height="3" fill="url(#vtChrome)"/>
        <rect x="-38" y="-22" width="76" height="3" fill="#02060c" opacity="0.9"/>
        <rect x="-16" y="0" width="32" height="12" rx="6" fill="url(#vtCore)" opacity="0">
          <animate attributeName="y" values="0; -102; -102; 0; 0" keyTimes="0; 0.3; 0.5; 0.8; 1" dur="1.15s" begin="0.575s" repeatCount="indefinite"/>
          <animate attributeName="opacity" values="0; 0.22; 0.22; 0; 0" keyTimes="0; 0.04; 0.3; 0.5; 0.8" dur="1.15s" begin="0.575s" repeatCount="indefinite"/>
        </rect>
        <rect x="-22" y="-116" width="5" height="104" rx="2.5" fill="url(#vtChrome)"/>
        <rect x="17" y="-116" width="5" height="104" rx="2.5" fill="url(#vtChrome)"/>
        <rect x="-44" y="-146" width="88" height="30" rx="8" fill="url(#vtFinBlack)" stroke="#0f172a" stroke-width="1.5"/>
        <rect x="-44" y="-142" width="88" height="3" fill="url(#vtChrome)"/>
        <rect x="-44" y="-120" width="88" height="3" fill="#0a1120"/>
        <rect x="-48" y="-164" width="96" height="20" rx="8" fill="#0b1322" stroke="#1b2740" stroke-width="1.5"/>
        <rect x="-48" y="-164" width="96" height="6" rx="3" fill="url(#vtChrome)"/>
      </g>

      <g transform="rotate(22.5)">
        <rect x="-36" y="-120" width="72" height="120" rx="10" fill="url(#vtBarrel)"/>
        <rect x="-38" y="-108" width="76" height="8" fill="url(#vtFinBlack)"/>
        <rect x="-38" y="-108" width="76" height="3" fill="url(#vtChrome)"/>
        <rect x="-38" y="-100" width="76" height="3" fill="#02060c" opacity="0.9"/>
        <rect x="-38" y="-95" width="76" height="8" fill="url(#vtFinBlack)"/>
        <rect x="-38" y="-95" width="76" height="3" fill="url(#vtChrome)"/>
        <rect x="-38" y="-87" width="76" height="3" fill="#02060c" opacity="0.9"/>
        <rect x="-38" y="-82" width="76" height="8" fill="url(#vtFinBlack)"/>
        <rect x="-38" y="-82" width="76" height="3" fill="url(#vtChrome)"/>
        <rect x="-38" y="-74" width="76" height="3" fill="#02060c" opacity="0.9"/>
        <rect x="-38" y="-69" width="76" height="8" fill="url(#vtFinBlack)"/>
        <rect x="-38" y="-69" width="76" height="3" fill="url(#vtChrome)"/>
        <rect x="-38" y="-61" width="76" height="3" fill="#02060c" opacity="0.9"/>
        <rect x="-38" y="-56" width="76" height="8" fill="url(#vtFinBlack)"/>
        <rect x="-38" y="-56" width="76" height="3" fill="url(#vtChrome)"/>
        <rect x="-38" y="-48" width="76" height="3" fill="#02060c" opacity="0.9"/>
        <rect x="-38" y="-43" width="76" height="8" fill="url(#vtFinBlack)"/>
        <rect x="-38" y="-43" width="76" height="3" fill="url(#vtChrome)"/>
        <rect x="-38" y="-35" width="76" height="3" fill="#02060c" opacity="0.9"/>
        <rect x="-38" y="-30" width="76" height="8" fill="url(#vtFinBlack)"/>
        <rect x="-38" y="-30" width="76" height="3" fill="url(#vtChrome)"/>
        <rect x="-38" y="-22" width="76" height="3" fill="#02060c" opacity="0.9"/>
        <rect x="-16" y="0" width="32" height="12" rx="6" fill="url(#vtCore)" opacity="0">
          <animate attributeName="y" values="0; -102; -102; 0; 0" keyTimes="0; 0.3; 0.5; 0.8; 1" dur="1.15s" begin="0s" repeatCount="indefinite"/>
          <animate attributeName="opacity" values="0; 0.22; 0.22; 0; 0" keyTimes="0; 0.04; 0.3; 0.5; 0.8" dur="1.15s" begin="0s" repeatCount="indefinite"/>
        </rect>
        <rect x="-22" y="-116" width="5" height="104" rx="2.5" fill="url(#vtChrome)"/>
        <rect x="17" y="-116" width="5" height="104" rx="2.5" fill="url(#vtChrome)"/>
        <rect x="-44" y="-146" width="88" height="30" rx="8" fill="url(#vtFinBlack)" stroke="#0f172a" stroke-width="1.5"/>
        <rect x="-44" y="-142" width="88" height="3" fill="url(#vtChrome)"/>
        <rect x="-44" y="-120" width="88" height="3" fill="#0a1120"/>
        <rect x="-48" y="-164" width="96" height="20" rx="8" fill="#0b1322" stroke="#1b2740" stroke-width="1.5"/>
        <rect x="-48" y="-164" width="96" height="6" rx="3" fill="url(#vtChrome)"/>
      </g>

      <g transform="translate(58 20)">
        <circle r="24" fill="url(#vtAir)" stroke="#0f172a" stroke-width="1.5"/>
        <g>
          <animateTransform attributeName="transform" type="rotate" values="0;360" dur="0.4s" repeatCount="indefinite"/>
          <circle r="24" fill="none" stroke="#34d399" stroke-width="1.5" stroke-dasharray="4 5" opacity="0.8"/>
        </g>
        <circle r="17" fill="none" stroke="#0f172a" stroke-width="1.5"/>
        <circle r="5" fill="#0b1322"/>
        <circle r="1.8" fill="#a7f3d0"/>
      </g>

      <path d="M 96 -112 C 150 -114 160 -42 128 18 C 112 50 98 76 84 84" fill="none" stroke="url(#vtChrome)" stroke-width="11" stroke-linecap="round"/>
      <ellipse cx="78" cy="86" rx="5" ry="9" fill="url(#vtFlame)" filter="url(#vtGlow)">
        <animate attributeName="opacity" values="0.95; 0.4; 0.8; 0.95" keyTimes="0; 0.35; 0.7; 1" dur="0.5s" repeatCount="indefinite"/>
      </ellipse>

      <circle cx="0" cy="0" r="40" fill="url(#vtCore)" opacity="0.2"/>
      <circle cx="0" cy="0" r="13" fill="url(#vtCore)">
        <animate attributeName="opacity" values="0.8; 1; 0.75; 0.8; 1; 0.75" keyTimes="0; 0.33; 0.42; 0.7; 0.78; 0.88" dur="1.15s" repeatCount="indefinite"/>
      </circle>
      <circle cx="0" cy="0" r="5" fill="#a7f3d0" filter="url(#vtGlow)"/>
    </g>
  </g>

  <g>
    <path class="ecg" d="M 60 268 L 128 268 L 148 268 L 160 248 L 172 288 L 184 268 L 200 268 L 220 268 L 232 252 L 244 284 L 256 268 L 272 268 L 292 268 L 304 256 L 316 280 L 328 268 L 344 268 L 460 268" fill="none" stroke="#10b981" stroke-width="7" pathLength="1" stroke-dasharray="1" stroke-dashoffset="1" opacity="0.5" filter="url(#vtGlowTight)">
      <animate attributeName="stroke-dashoffset" values="1; 0.6; 0; 0; 1" keyTimes="0; 0.28; 0.45; 0.92; 1" dur="1.15s" repeatCount="indefinite"/>
    </path>
    <path class="ecg" d="M 60 268 L 128 268 L 148 268 L 160 248 L 172 288 L 184 268 L 200 268 L 220 268 L 232 252 L 244 284 L 256 268 L 272 268 L 292 268 L 304 256 L 316 280 L 328 268 L 344 268 L 460 268" fill="none" stroke="#a7f3d0" stroke-width="2.5" pathLength="1" stroke-dasharray="1" stroke-dashoffset="1">
      <animate attributeName="stroke-dashoffset" values="1; 0.6; 0; 0; 1" keyTimes="0; 0.28; 0.45; 0.92; 1" dur="1.15s" repeatCount="indefinite"/>
    </path>
    <circle cx="160" cy="248" r="4" fill="#a7f3d0" filter="url(#vtGlowTight)">
      <animate attributeName="opacity" values="0.15; 1; 0.3; 0.15; 1; 0.3" keyTimes="0; 0.33; 0.45; 0.7; 0.78; 0.9" dur="1.15s" repeatCount="indefinite"/>
    </circle>
  </g>

  <text x="260" y="322" text-anchor="middle" font-family="'Segoe UI', Arial, sans-serif" font-size="44" font-weight="800" fill="#e2e8f0">
    <animate attributeName="opacity" values="0.85; 1; 0.9; 0.85" keyTimes="0; 0.33; 0.78; 1" dur="1.15s" repeatCount="indefinite"/>
    <tspan fill="url(#vtText)">Crypto</tspan><tspan fill="url(#vtSilver)">Engine</tspan>
  </text>

  <text x="260" y="344" text-anchor="middle" font-family="'Segoe UI', Arial, sans-serif" font-size="12" fill="#64748b" letter-spacing="5">
    POWERED BY CRYPTO · AUTO TRADING ENGINE
  </text>
</svg>
